<?xml version="1.0" encoding="UTF-8"?>
<svg version="1.1" xmlns="http://www.w3.org/2000/svg" width="170" height="170">
<path d="M0 0 C3.4683797 2.86827881 6.74660449 5.89194518 10 9 C10.62648437 9.55171875 11.25296875 10.1034375 11.8984375 10.671875 C23.75918708 21.51292213 31.75195574 40.061861 33 56 C33.38516094 65.37521815 33.20153235 74.68812429 32 84 C33.32 84 34.64 84 36 84 C37.21647307 94.28933474 37.21647307 94.28933474 34.5 98.109375 C32.41257612 99.8869469 30.23785819 101.41485045 28 103 C26.73455828 104.09260513 25.4790381 105.19674695 24.23046875 106.30859375 C7.50643232 121.07663661 -12.31323603 133.27240327 -34 139 C-34.87785156 139.24234375 -35.75570312 139.4846875 -36.66015625 139.734375 C-55.70737078 144.09138852 -76.33306144 141.12153486 -93 131 C-104.5413747 123.62879122 -115.0388476 115.67119329 -121 103 C-121.77085938 103.3609375 -122.54171875 103.721875 -123.3359375 104.09375 C-124.84027344 104.78984375 -124.84027344 104.78984375 -126.375 105.5 C-127.87160156 106.19609375 -127.87160156 106.19609375 -129.3984375 106.90625 C-132 108 -132 108 -134 108 C-134 105.36 -134 102.72 -134 100 C-132.73160474 99.49384702 -131.46016898 98.99530901 -130.1875 98.5 C-129.47980469 98.2215625 -128.77210938 97.943125 -128.04296875 97.65625 C-126 97 -126 97 -123 97 C-123.27714844 96.05898437 -123.55429688 95.11796875 -123.83984375 94.1484375 C-124.20207031 92.90320313 -124.56429687 91.65796875 -124.9375 90.375 C-125.29714844 89.14523438 -125.65679687 87.91546875 -126.02734375 86.6484375 C-131.81222615 64.9493204 -128.22165411 42.08122894 -117.11621094 22.80273438 C-114.22031985 18.12573092 -110.72398865 14.02867863 -107 10 C-106.41476563 9.34644531 -105.82953125 8.69289063 -105.2265625 8.01953125 C-78.19352826 -20.72686431 -31.15676615 -22.84220392 0 0 Z " fill="#34373A" transform="translate(134,25)"/>
<path d="M0 0 C3.4683797 2.86827881 6.74660449 5.89194518 10 9 C10.62648437 9.55171875 11.25296875 10.1034375 11.8984375 10.671875 C23.75918708 21.51292213 31.75195574 40.061861 33 56 C33.38516094 65.37521815 33.20153235 74.68812429 32 84 C33.32 84.33 34.64 84.66 36 85 C30.3381081 86.27511515 24.93190261 85.93783336 19.1875 85.625 C18.22134766 85.58117187 17.25519531 85.53734375 16.25976562 85.4921875 C9.13151716 85.13151716 9.13151716 85.13151716 8 84 C7.91148471 81.40640678 7.88474055 78.83960309 7.90234375 76.24609375 C7.90446617 75.08292381 7.90446617 75.08292381 7.90663147 73.89625549 C7.91224655 71.40996506 7.92480154 68.9237634 7.9375 66.4375 C7.94251306 64.75586067 7.9470763 63.07421994 7.95117188 61.39257812 C7.96222087 57.26168434 7.97949555 53.13085724 8 49 C7.34 49 6.68 49 6 49 C4.5393715 46.35261084 4 45.10551666 4 42 C0.7 42 -2.6 42 -6 42 C-6.33 43.32 -6.66 44.64 -7 46 C-7.66 46 -8.32 46 -9 46 C-9.33 46.99 -9.66 47.98 -10 49 C-10 43.06 -10 37.12 -10 31 C-18.25 31 -26.5 31 -35 31 C-35 39.58 -35 48.16 -35 57 C-36.32 57 -37.64 57 -39 57 C-39 52.05 -39 47.1 -39 42 C-39.99 42 -40.98 42 -42 42 C-42.495 38.535 -42.495 38.535 -43 35 C-47.62 35.33 -52.24 35.66 -57 36 C-57.33 36.99 -57.66 37.98 -58 39 C-58.66 39 -59.32 39 -60 39 C-60 39.66 -60 40.32 -60 41 C-60.99 41 -61.98 41 -63 41 C-63 48.59 -63 56.18 -63 64 C-63.66 64 -64.32 64 -65 64 C-65 49.15 -65 34.3 -65 19 C-69.228125 19.020625 -73.45625 19.04125 -77.8125 19.0625 C-79.1219458 19.050979 -80.4313916 19.03945801 -81.78051758 19.02758789 C-88.7025989 19.17733066 -95.26744751 19.81529739 -101.00073242 23.94311523 C-106.00269425 31.59112647 -104.06423713 42.72765111 -103.75 51.5 C-103.65025085 54.87653277 -103.56710992 58.25051689 -103.52618408 61.6282959 C-103.49892347 63.72485564 -103.43735074 65.82133402 -103.33660889 67.91564941 C-103.21974724 74.9064749 -103.21974724 74.9064749 -105.51257324 78.11987305 C-107.38769531 79.97070312 -107.38769531 79.97070312 -109.26104736 81.50695801 C-112.71596012 84.47330091 -114.53468311 88.50433855 -115.875 92.8125 C-117 95 -117 95 -120.0703125 96.13671875 C-121.03710938 96.42160156 -122.00390625 96.70648438 -123 97 C-123.65003625 94.79290017 -124.29484745 92.58426108 -124.9375 90.375 C-125.29714844 89.14523438 -125.65679687 87.91546875 -126.02734375 86.6484375 C-131.81222615 64.9493204 -128.22165411 42.08122894 -117.11621094 22.80273438 C-114.22031985 18.12573092 -110.72398865 14.02867863 -107 10 C-106.41476563 9.34644531 -105.82953125 8.69289063 -105.2265625 8.01953125 C-78.19352826 -20.72686431 -31.15676615 -22.84220392 0 0 Z " fill="#2F85DA" transform="translate(134,25)"/>
<path d="M0 0 C-0.0220752 0.77077881 -0.04415039 1.54155762 -0.06689453 2.33569336 C-0.13850308 5.87076875 -0.13230906 9.40174199 -0.125 12.9375 C-0.16109375 14.14986328 -0.1971875 15.36222656 -0.234375 16.61132812 C-0.22148437 17.80048828 -0.20859375 18.98964844 -0.1953125 20.21484375 C-0.20578613 21.29886475 -0.21625977 22.38288574 -0.22705078 23.49975586 C1.59957223 28.71031975 4.30131685 32.26760365 9.08666611 35.17388725 C16.46528571 38.3597252 25.78385424 37.19236876 33.6328125 37.09765625 C35.83813804 37.1033147 38.04345666 37.11293266 40.24874878 37.12632751 C46.02613379 37.15086324 51.80203738 37.12192722 57.57928467 37.08154297 C63.48519859 37.04982408 69.39092718 37.0691025 75.296875 37.08398438 C86.86496502 37.10567054 98.4321321 37.07082212 110 37 C110 36.34 110 35.68 110 35 C110.66 35 111.32 35 112 35 C112 25.76 112 16.52 112 7 C125.86 7.495 125.86 7.495 140 8 C140 19 140 19 136.5 22.75 C135 23.83333333 133.5 24.91666667 132 26 C130.73545474 27.09495559 129.47983194 28.20025269 128.23046875 29.3125 C111.498693 44.07377394 91.68905083 56.2717993 70 62 C69.12214844 62.24234375 68.24429688 62.4846875 67.33984375 62.734375 C48.29262922 67.09138852 27.66693856 64.12153486 11 54 C-0.5413747 46.62879122 -11.0388476 38.67119329 -17 26 C-17.77085938 26.3609375 -18.54171875 26.721875 -19.3359375 27.09375 C-20.33882812 27.5578125 -21.34171875 28.021875 -22.375 28.5 C-23.37273438 28.9640625 -24.37046875 29.428125 -25.3984375 29.90625 C-28 31 -28 31 -30 31 C-30 28.36 -30 25.72 -30 23 C-27.54285453 22.16301614 -25.08441143 21.33027576 -22.625 20.5 C-21.92632812 20.26152344 -21.22765625 20.02304688 -20.5078125 19.77734375 C-15.2265625 18 -15.2265625 18 -13 18 C-12.89300781 17.26910156 -12.78601563 16.53820312 -12.67578125 15.78515625 C-11.45616494 10.75864508 -5.80365973 0 0 0 Z " fill="#2DB605" transform="translate(30,102)"/>
<path d="M0 0 C8.91 0 17.82 0 27 0 C27 14.85 27 29.7 27 45 C27.66 45 28.32 45 29 45 C29 37.41 29 29.82 29 22 C29.99 22 30.98 22 32 22 C32 21.34 32 20.68 32 20 C32.66 20 33.32 20 34 20 C34.33 18.68 34.66 17.36 35 16 C39.62 16 44.24 16 49 16 C49.495 19.465 49.495 19.465 50 23 C50.99 23 51.98 23 53 23 C53 27.62 53 32.24 53 37 C52.34 37 51.68 37 51 37 C50.67 46.24 50.34 55.48 50 65 C49.01 65.495 49.01 65.495 48 66 C47.01 65.505 47.01 65.505 46 65 C44.62451844 64.91691362 43.24514204 64.89263984 41.8671875 64.90234375 C41.14128418 64.90484131 40.41538086 64.90733887 39.66748047 64.90991211 C38.74596191 64.91901611 37.82444336 64.92812012 36.875 64.9375 C32.481875 64.9684375 32.481875 64.9684375 28 65 C27.67 73.58 27.34 82.16 27 91 C26.67 91 26.34 91 26 91 C25.505 78.625 25.505 78.625 25 66 C21.535 65.505 21.535 65.505 18 65 C18 69.95 18 74.9 18 80 C17.34 79.67 16.68 79.34 16 79 C16.33 77.35 16.66 75.7 17 74 C16.34 74 15.68 74 15 74 C14.70867188 73.37351562 14.41734375 72.74703125 14.1171875 72.1015625 C13.70726562 71.28429687 13.29734375 70.46703125 12.875 69.625 C12.48054688 68.81289062 12.08609375 68.00078125 11.6796875 67.1640625 C9.78682563 64.31168367 9.78682563 64.31168367 4 63 C4 56.73 4 50.46 4 44 C5.32 44 6.64 44 8 44 C8 42.68 8 41.36 8 40 C7.01 40 6.02 40 5 40 C4.67 38.02 4.34 36.04 4 34 C5.32 34 6.64 34 8 34 C8 32.68 8 31.36 8 30 C6.68 30 5.36 30 4 30 C3.67 26.7 3.34 23.4 3 20 C4.65 20.99 6.3 21.98 8 23 C8 21.68 8 20.36 8 19 C6.68 19 5.36 19 4 19 C4 17.02 4 15.04 4 13 C5.32 13 6.64 13 8 13 C8 11.68 8 10.36 8 9 C6.68 9 5.36 9 4 9 C3.71125 7.88625 3.4225 6.7725 3.125 5.625 C2.30758671 1.99708908 2.30758671 1.99708908 0 0 Z " fill="#423832" transform="translate(42,44)"/>
<path d="M0 0 C1.98 0.99 1.98 0.99 4 2 C4 3.98 4 5.96 4 8 C5.32 8 6.64 8 8 8 C8 9.32 8 10.64 8 12 C6.68 12 5.36 12 4 12 C4 13.98 4 15.96 4 18 C5.32 18 6.64 18 8 18 C8 19.32 8 20.64 8 22 C6.68 21.67 5.36 21.34 4 21 C4 23.64 4 26.28 4 29 C5.32 29 6.64 29 8 29 C8 30.32 8 31.64 8 33 C6.68 33 5.36 33 4 33 C4.33 34.98 4.66 36.96 5 39 C5.99 39 6.98 39 8 39 C8 40.32 8 41.64 8 43 C6.68 43 5.36 43 4 43 C4 49.27 4 55.54 4 62 C5.65 62 7.3 62 9 62 C10.80078125 63.64453125 10.80078125 63.64453125 12.3125 65.8125 C12.82425781 66.52019531 13.33601563 67.22789063 13.86328125 67.95703125 C15 70 15 70 15 73 C15.66 73 16.32 73 17 73 C17.33 70.03 17.66 67.06 18 64 C21 64 24 64 27 64 C27.33 63.67 27.66 63.34 28 63 C30.95028374 62.84612362 33.86098588 62.76828979 36.8125 62.75 C37.63298828 62.729375 38.45347656 62.70875 39.29882812 62.6875 C40.09353516 62.68234375 40.88824219 62.6771875 41.70703125 62.671875 C42.4338208 62.6625293 43.16061035 62.65318359 43.90942383 62.64355469 C46.7090861 63.12089988 48.01827001 63.96996191 50 66 C50.50170898 68.40429688 50.50170898 68.40429688 50.49609375 71.21875 C50.49673828 72.23324219 50.49738281 73.24773437 50.49804688 74.29296875 C50.47806641 75.35128906 50.45808594 76.40960938 50.4375 77.5 C50.44458984 78.55832031 50.45167969 79.61664063 50.45898438 80.70703125 C50.39577135 88.36067036 50.39577135 88.36067036 48.89038086 90.79248047 C44.74134131 93.44276455 39.03910196 92.59845642 34.23095703 92.61083984 C32.13724986 92.62491763 30.04953529 92.69221508 27.95703125 92.76171875 C18.17949435 92.91775734 18.17949435 92.91775734 14.94042969 90.39746094 C13.5546875 88.4609375 13.5546875 88.4609375 12 85 C11.34 87.31 10.68 89.62 10 92 C8.52093108 92.02689216 7.04172517 92.04634621 5.5625 92.0625 C4.32693359 92.07990234 4.32693359 92.07990234 3.06640625 92.09765625 C1 92 1 92 0 91 C-0.09520906 88.16959328 -0.12553631 85.36365007 -0.11352539 82.53295898 C-0.11367142 81.64523804 -0.11381744 80.75751709 -0.1139679 79.84289551 C-0.11326843 76.89393716 -0.10547448 73.94504113 -0.09765625 70.99609375 C-0.09579219 68.95728083 -0.09436823 66.91846746 -0.09336853 64.87965393 C-0.08954241 59.50215426 -0.07971132 54.12468142 -0.06866455 48.74719238 C-0.05845245 43.26440799 -0.05387134 37.78161928 -0.04882812 32.29882812 C-0.03808914 21.53254027 -0.02101159 10.76627236 0 0 Z " fill="#525255" transform="translate(42,45)"/>
<path d="M0 0 C0.33 30.03 0.66 60.06 1 91 C4.38183138 92.69091569 8.22584467 92.18101108 11.94775391 92.20532227 C12.87463516 92.21522186 13.80151642 92.22512146 14.75648499 92.23532104 C17.82981789 92.2669882 20.90316628 92.29171408 23.9765625 92.31640625 C26.10363168 92.33697127 28.23069674 92.35796762 30.35775757 92.37937927 C35.96371116 92.43464658 41.56970192 92.4840353 47.17572021 92.53222656 C52.89322223 92.5824076 58.6106701 92.63811138 64.328125 92.69335938 C75.5520371 92.80099793 86.77599617 92.90243022 98 93 C98 93.33 98 93.66 98 94 C85.28237565 94.23227239 72.56526036 94.40967133 59.8459425 94.51812172 C53.93892896 94.57018853 48.03337235 94.64074336 42.12719727 94.75439453 C36.42120995 94.86349937 30.7166187 94.92293513 25.00966835 94.94877243 C22.83869777 94.96717065 20.66779887 95.00310033 18.49742699 95.05730057 C-1.16984102 95.52866301 -1.16984102 95.52866301 -7.83764648 89.27514648 C-11.84366202 84.9864198 -13.28215712 81.48878235 -13.37573242 75.65112305 C-13.31349487 74.06037964 -13.31349487 74.06037964 -13.25 72.4375 C-13.24266846 71.28870361 -13.23533691 70.13990723 -13.2277832 68.95629883 C-13.20228954 66.26030155 -13.15335932 63.5715238 -13.08251953 60.87695312 C-12.97790734 56.1855082 -13.04010503 51.50197304 -13.10952759 46.81028748 C-13.16708553 42.38125915 -13.17656017 37.95283398 -13.17736816 33.52346802 C-13.18410002 31.30696301 -13.20556706 29.09045177 -13.24206543 26.87423706 C-13.49484563 9.00411822 -13.49484563 9.00411822 -9.76416016 4.00244141 C-6.64851049 1.76143876 -3.91408026 0 0 0 Z " fill="#095801" transform="translate(42,45)"/>
<path d="M0 0 C1.31871094 -0.00773437 2.63742188 -0.01546875 3.99609375 -0.0234375 C7.76289638 0.3973882 8.93910436 0.75515525 11.5625 3.375 C12.0324707 5.77929688 12.0324707 5.77929688 11.98828125 8.59375 C11.97990234 9.60824219 11.97152344 10.62273437 11.96289062 11.66796875 C11.91938477 13.25544922 11.91938477 13.25544922 11.875 14.875 C11.86533203 15.93332031 11.85566406 16.99164063 11.84570312 18.08203125 C11.73195079 25.86664763 11.73195079 25.86664763 10.5625 29.375 C7.62445004 29.45586376 4.68861925 29.5154283 1.75 29.5625 C0.91662109 29.58763672 0.08324219 29.61277344 -0.77539062 29.63867188 C-1.97905273 29.65317383 -1.97905273 29.65317383 -3.20703125 29.66796875 C-4.31461792 29.69153442 -4.31461792 29.69153442 -5.44458008 29.71557617 C-7.4375 29.375 -7.4375 29.375 -9.17700195 28.18286133 C-10.87373518 25.74933246 -10.82517878 24.10926292 -10.8359375 21.15625 C-10.83980469 20.14175781 -10.84367187 19.12726563 -10.84765625 18.08203125 C-10.83605469 17.02371094 -10.82445313 15.96539062 -10.8125 14.875 C-10.82410156 13.81667969 -10.83570312 12.75835937 -10.84765625 11.66796875 C-10.84185547 10.14623047 -10.84185547 10.14623047 -10.8359375 8.59375 C-10.83255371 7.66498047 -10.82916992 6.73621094 -10.82568359 5.77929688 C-10.4375 3.375 -10.4375 3.375 -9.12719727 1.57373047 C-6.34709483 -0.39857165 -3.27779192 -0.05656784 0 0 Z " fill="#6F6F6F" transform="translate(129.4375,107.625)"/>
<path d="M0 0 C13.86 0.495 13.86 0.495 28 1 C28 12 28 12 24.5 15.75 C23.00967471 16.8466046 21.50928473 17.92963991 20 19 C18.57092628 20.25686519 17.15378731 21.52745409 15.75 22.8125 C12.11226893 26.09698033 8.78769665 27.95269136 4 29 C2.68 29.33 1.36 29.66 0 30 C0 20.1 0 10.2 0 0 Z " fill="#1AD808" transform="translate(142,109)"/>
<path d="M0 0 C0.77214844 0.01546875 1.54429688 0.0309375 2.33984375 0.046875 C3.11199219 0.03140625 3.88414063 0.0159375 4.6796875 0 C10.2831733 0.03884566 10.2831733 0.03884566 12.8515625 2.3828125 C14.16900576 5.26764874 14.18042114 7.41356306 13.83984375 10.546875 C11.83984375 12.546875 11.83984375 12.546875 9.33984375 12.796875 C6.83984375 12.546875 6.83984375 12.546875 4.83984375 10.546875 C3.18984375 10.216875 1.53984375 9.886875 -0.16015625 9.546875 C-0.16015625 13.176875 -0.16015625 16.806875 -0.16015625 20.546875 C1.48984375 20.546875 3.13984375 20.546875 4.83984375 20.546875 C4.83984375 19.886875 4.83984375 19.226875 4.83984375 18.546875 C10.9921875 18.44921875 10.9921875 18.44921875 12.83984375 18.546875 C13.83984375 19.546875 13.83984375 19.546875 14.15234375 22.359375 C13.83984375 25.546875 13.83984375 25.546875 12.2578125 27.72265625 C8.99853242 30.18159615 6.88257936 30.0160913 2.83984375 29.921875 C1.62296875 29.90898437 0.40609375 29.89609375 -0.84765625 29.8828125 C-3.89211502 29.57405843 -5.65510445 29.24501107 -8.16015625 27.546875 C-10.03369782 23.79979186 -9.38816411 19.29540147 -9.41015625 15.171875 C-9.43078125 14.2128125 -9.45140625 13.25375 -9.47265625 12.265625 C-9.4778125 11.34007813 -9.48296875 10.41453125 -9.48828125 9.4609375 C-9.49762695 8.6148291 -9.50697266 7.7687207 -9.51660156 6.89697266 C-8.62527131 1.02029802 -5.59964204 0.03881901 0 0 Z " fill="#787878" transform="translate(103.16015625,107.453125)"/>
<path d="M0 0 C2.59875 -0.04125 5.1975 -0.0825 7.875 -0.125 C8.69210449 -0.14320801 9.50920898 -0.16141602 10.35107422 -0.18017578 C12.23495049 -0.19477217 14.11869312 -0.09943482 16 0 C18.44350949 2.44350949 18.25627116 3.11316352 18.265625 6.46484375 C18.26949219 7.78838867 18.26949219 7.78838867 18.2734375 9.13867188 C18.26570313 10.06228516 18.25796875 10.98589844 18.25 11.9375 C18.25773437 12.85724609 18.26546875 13.77699219 18.2734375 14.72460938 C18.27085938 15.60826172 18.26828125 16.49191406 18.265625 17.40234375 C18.26336914 18.21179443 18.26111328 19.02124512 18.25878906 19.85522461 C18 22 18 22 16 25 C13.19359893 25.2224948 10.66883108 25.28088481 7.875 25.1875 C5.27625 25.125625 2.6775 25.06375 0 25 C0 16.75 0 8.5 0 0 Z " fill="#F0F0F0" transform="translate(72,110)"/>
<path d="M0 0 C3 1 3 1 4 3 C4.6496875 2.2575 4.6496875 2.2575 5.3125 1.5 C7 0 7 0 10 0 C12.16926659 3.25389988 12.24080049 4.13395957 12.1953125 7.88671875 C12.18886719 8.82451172 12.18242188 9.76230469 12.17578125 10.72851562 C12.15902344 11.70498047 12.14226562 12.68144531 12.125 13.6875 C12.11597656 14.67556641 12.10695313 15.66363281 12.09765625 16.68164062 C12.0740843 19.12133765 12.04118022 21.56054697 12 24 C8.56745731 24.73472486 5.50435148 25 2 25 C1.01 25.33 0.02 25.66 -1 26 C-1.99 25.67 -2.98 25.34 -4 25 C-4 23.68 -4 22.36 -4 21 C-5.32 21 -6.64 21 -8 21 C-8.33 19.02 -8.66 17.04 -9 15 C-7.68 15 -6.36 15 -5 15 C-5 13.68 -5 12.36 -5 11 C-6.32 11 -7.64 11 -9 11 C-9.33 7.7 -9.66 4.4 -10 1 C-9.34 1.66 -8.68 2.32 -8 3 C-4.41656024 3.16677282 -4.41656024 3.16677282 -1 3 C-0.67 2.01 -0.34 1.02 0 0 Z " fill="#484848" transform="translate(55,63)"/>
<path d="M0 0 C0.33 0.66 0.66 1.32 1 2 C0.34 2 -0.32 2 -1 2 C-1 28.73 -1 55.46 -1 83 C-2.32 82.34 -3.64 81.68 -5 81 C-5.33 71.76 -5.66 62.52 -6 53 C-6.33 53 -6.66 53 -7 53 C-7.17760498 46.25601611 -7.30012074 39.51263561 -7.38452148 32.7668457 C-7.41970672 30.47267115 -7.46746347 28.17865337 -7.52807617 25.88500977 C-7.61307661 22.58570709 -7.65270822 19.28847963 -7.68359375 15.98828125 C-7.73778725 14.45207878 -7.73778725 14.45207878 -7.79307556 12.88484192 C-7.79692587 5.88926993 -7.79692587 5.88926993 -5.39505005 3.20907593 C-3.45727539 1.81323242 -3.45727539 1.81323242 0 0 Z " fill="#51533A" transform="translate(37,47)"/>
<path d="M0 0 C7.26 0 14.52 0 22 0 C22 6.6 22 13.2 22 20 C21.34 20.33 20.68 20.66 20 21 C20 19.68 20 18.36 20 17 C18.35 17.33 16.7 17.66 15 18 C14.67 18.99 14.34 19.98 14 21 C13.34 20.01 12.68 19.02 12 18 C11.34 18 10.68 18 10 18 C10 18.99 10 19.98 10 21 C8.35 21 6.7 21 5 21 C5 19.68 5 18.36 5 17 C3.68 17 2.36 17 1 17 C1 15.02 1 13.04 1 11 C2.32 11 3.64 11 5 11 C5 9.68 5 8.36 5 7 C3.68 7 2.36 7 1 7 C0.67 4.69 0.34 2.38 0 0 Z " fill="#3B3B3B" transform="translate(45,46)"/>
<path d="M0 0 C0.82048828 -0.020625 1.64097656 -0.04125 2.48632812 -0.0625 C3.28103516 -0.06765625 4.07574219 -0.0728125 4.89453125 -0.078125 C5.6213208 -0.0874707 6.34811035 -0.09681641 7.09692383 -0.10644531 C9.8965861 0.37089988 11.20577001 1.21996191 13.1875 3.25 C13.68920898 5.65429688 13.68920898 5.65429688 13.68359375 8.46875 C13.68423828 9.48324219 13.68488281 10.49773437 13.68554688 11.54296875 C13.66556641 12.60128906 13.64558594 13.65960938 13.625 14.75 C13.63208984 15.80832031 13.63917969 16.86664063 13.64648438 17.95703125 C13.58327135 25.61067036 13.58327135 25.61067036 12.07788086 28.04248047 C7.92884131 30.69276455 2.22660196 29.84845642 -2.58154297 29.86083984 C-4.67525014 29.87491763 -6.76296471 29.94221508 -8.85546875 30.01171875 C-18.63300565 30.16775734 -18.63300565 30.16775734 -21.87207031 27.64746094 C-23.2578125 25.7109375 -23.2578125 25.7109375 -24.8125 22.25 C-25.1425 24.23 -25.4725 26.21 -25.8125 28.25 C-26.1425 28.25 -26.4725 28.25 -26.8125 28.25 C-27.1425 23.3 -27.4725 18.35 -27.8125 13.25 C-23.80684816 17.25565184 -21.68535368 19.85775724 -19.12109375 24.578125 C-17.73223463 26.70531285 -17.73223463 26.70531285 -13.8125 27.25 C-13.4825 18.67 -13.1525 10.09 -12.8125 1.25 C-11.8225 1.25 -10.8325 1.25 -9.8125 1.25 C-7.66072304 -0.90177696 -2.9736484 0.01842695 0 0 Z M-6.8125 2.25 C-6.8125 10.5 -6.8125 18.75 -6.8125 27.25 C-2.914375 27.3428125 -2.914375 27.3428125 1.0625 27.4375 C1.87960449 27.46481201 2.69670898 27.49212402 3.53857422 27.52026367 C5.423576 27.54217134 7.30826763 27.39898777 9.1875 27.25 C11.2972676 24.0853486 11.44302605 23.27606227 11.453125 19.65234375 C11.45570312 18.76869141 11.45828125 17.88503906 11.4609375 16.97460938 C11.45320313 16.05486328 11.44546875 15.13511719 11.4375 14.1875 C11.44523437 13.26388672 11.45296875 12.34027344 11.4609375 11.38867188 C11.45707031 10.06512695 11.45707031 10.06512695 11.453125 8.71484375 C11.45086914 7.906521 11.44861328 7.09819824 11.44628906 6.26538086 C11.36692632 4.02189944 11.36692632 4.02189944 9.1875 2.25 C6.43428525 2.10448125 3.80986578 2.06377887 1.0625 2.125 C-1.53625 2.16625 -4.135 2.2075 -6.8125 2.25 Z " fill="#7D7A77" transform="translate(78.8125,107.75)"/>
<path d="M0 0 C1.98 0 3.96 0 6 0 C6 8.91 6 17.82 6 27 C-0.25889976 24.91370008 -0.78148423 24.68533091 -3.8125 19.4375 C-4.39644531 18.44621094 -4.98039062 17.45492187 -5.58203125 16.43359375 C-6.04996094 15.63050781 -6.51789062 14.82742187 -7 14 C-7.33 13.67 -7.66 13.34 -8 13 C-8 17.62 -8 22.24 -8 27 C-9.65 26.67 -11.3 26.34 -13 26 C-13 17.75 -13 9.5 -13 1 C-11.68 1 -10.36 1 -9 1 C-7 3.5625 -7 3.5625 -5 7 C-4.62359375 7.64582031 -4.2471875 8.29164062 -3.859375 8.95703125 C-2.8918436 10.62977039 -1.94417759 12.31396859 -1 14 C-0.67 9.38 -0.34 4.76 0 0 Z " fill="#F0F0F0" transform="translate(60,109)"/>
<path d="M0 0 C0.66 0 1.32 0 2 0 C2 28.38 2 56.76 2 86 C1.34 86 0.68 86 0 86 C0 85.34 0 84.68 0 84 C-0.66 84 -1.32 84 -2 84 C-2 56.94 -2 29.88 -2 2 C-1.34 2 -0.68 2 0 2 C0 1.34 0 0.68 0 0 Z " fill="#909120" transform="translate(38,47)"/>
<path d="M0 0 C6.27 0 12.54 0 19 0 C19 4.95 19 9.9 19 15 C17.68 14.67 16.36 14.34 15 14 C14.34 14 13.68 14 13 14 C11.68 14 10.36 14 9 14 C9 13.34 9 12.68 9 12 C8.34 12 7.68 12 7 12 C7 12.66 7 13.32 7 14 C5.68 14 4.36 14 3 14 C3 15.65 3 17.3 3 19 C4.32 19 5.64 19 7 19 C7 20.32 7 21.64 7 23 C5.68 23 4.36 23 3 23 C2.67 23.99 2.34 24.98 2 26 C1.34 26 0.68 26 0 26 C0 17.42 0 8.84 0 0 Z " fill="#535354" transform="translate(102,58)"/>
<path d="M0 0 C6.27 0 12.54 0 19 0 C19 5.61 19 11.22 19 17 C19.66 17 20.32 17 21 17 C21 16.01 21 15.02 21 14 C21.66 13.67 22.32 13.34 23 13 C23.33 12.01 23.66 11.02 24 10 C24.99 10 25.98 10 27 10 C27 11.32 27 12.64 27 14 C26.34 14 25.68 14 25 14 C25 15.32 25 16.64 25 18 C24.01 18 23.02 18 22 18 C22 28.23 22 38.46 22 49 C21.01 49 20.02 49 19 49 C18.94465088 48.40050537 18.88930176 47.80101074 18.83227539 47.18334961 C18.57746853 44.43456428 18.32000384 41.68603394 18.0625 38.9375 C17.97548828 37.99455078 17.88847656 37.05160156 17.79882812 36.08007812 C17.32357317 31.02829393 16.77210932 26.01523261 16 21 C15.01 20.67 14.02 20.34 13 20 C12.67 21.32 12.34 22.64 12 24 C11.67 22.68 11.34 21.36 11 20 C7.88214887 20.64644661 7.88214887 20.64644661 7 23 C6.34 23 5.68 23 5 23 C5 22.01 5 21.02 5 20 C3.68 20 2.36 20 1 20 C1 18.35 1 16.7 1 15 C2.32 15 3.64 15 5 15 C5 14.34 5 13.68 5 13 C5.66 13 6.32 13 7 13 C7 13.66 7 14.32 7 15 C8.32 15 9.64 15 11 15 C11.33 14.34 11.66 13.68 12 13 C13.65 13.99 15.3 14.98 17 16 C17 11.05 17 6.1 17 1 C11.39 1 5.78 1 0 1 C0 0.67 0 0.34 0 0 Z " fill="#303030" transform="translate(104,57)"/>
<path d="M0 0 C1.65 0 3.3 0 5 0 C5.99 0.99 5.99 0.99 7 2 C9.68839385 2.26991906 12.29141936 2.08737357 15 2 C17.17232578 8.24543661 17 11.82876967 17 19 C23.6 19.33 30.2 19.66 37 20 C37 20.33 37 20.66 37 21 C5.65 21 -25.7 21 -58 21 C-58 20.67 -58 20.34 -58 20 C-54.535 19.505 -54.535 19.505 -51 19 C-50.67 16.69 -50.34 14.38 -50 12 C-47.66475218 14.25740623 -45.81294927 16.2805761 -44 19 C-41.64221329 19.45902967 -41.64221329 19.45902967 -38.86352539 19.38818359 C-37.79223892 19.39764008 -36.72095245 19.40709656 -35.61720276 19.4168396 C-34.45575241 19.41076691 -33.29430206 19.40469421 -32.09765625 19.3984375 C-30.90901474 19.40130768 -29.72037323 19.40417786 -28.49571228 19.40713501 C-25.97801234 19.40917961 -23.46029665 19.40362225 -20.94262695 19.39111328 C-17.08183328 19.37508029 -13.22208884 19.39094236 -9.36132812 19.41015625 C-6.91926851 19.40817361 -4.47720956 19.40432951 -2.03515625 19.3984375 C-0.87573013 19.40451019 0.28369598 19.41058289 1.47825623 19.4168396 C2.55269485 19.40738312 3.62713348 19.39792664 4.73413086 19.38818359 C6.15404579 19.38460342 6.15404579 19.38460342 7.60264587 19.38095093 C10.04330371 19.17951716 10.04330371 19.17951716 11.81739807 17.67495728 C13.58483413 15.17168054 13.19826837 12.97402561 13 10 C10.36 9.67 7.72 9.34 5 9 C5 9.66 5 10.32 5 11 C3.35 11 1.7 11 0 11 C0 7.37 0 3.74 0 0 Z " fill="#363636" transform="translate(103,117)"/>
<path d="M0 0 C2.97 0 5.94 0 9 0 C9 10.23 9 20.46 9 31 C6.03 30.67 3.06 30.34 0 30 C0 20.1 0 10.2 0 0 Z " fill="#AC1515" transform="translate(130,78)"/>
<path d="M0 0 C1.26714844 -0.01417969 2.53429687 -0.02835937 3.83984375 -0.04296875 C7.0625 0.1875 7.0625 0.1875 9.0625 2.1875 C9.1875 4.8125 9.1875 4.8125 9.0625 7.1875 C8.0725 7.1875 7.0825 7.1875 6.0625 7.1875 C6.0625 6.1975 6.0625 5.2075 6.0625 4.1875 C2.7625 4.5175 -0.5375 4.8475 -3.9375 5.1875 C-4.2675 6.8375 -4.5975 8.4875 -4.9375 10.1875 C-4.09445313 10.17589844 -3.25140625 10.16429688 -2.3828125 10.15234375 C-1.28710938 10.14332031 -0.19140625 10.13429688 0.9375 10.125 C2.02804688 10.11339844 3.11859375 10.10179688 4.2421875 10.08984375 C7.0625 10.1875 7.0625 10.1875 9.0625 11.1875 C9.08936553 13.16659398 9.10883375 15.14578971 9.125 17.125 C9.13660156 18.22714844 9.14820313 19.32929688 9.16015625 20.46484375 C9.0625 23.1875 9.0625 23.1875 8.0625 24.1875 C5.55113896 24.28725032 3.07346585 24.32632183 0.5625 24.3125 C-0.14003906 24.31636719 -0.84257812 24.32023437 -1.56640625 24.32421875 C-6.81088622 24.31411378 -6.81088622 24.31411378 -7.9375 23.1875 C-7.97813832 21.52132885 -7.980221 19.85361905 -7.9375 18.1875 C-6.9475 18.1875 -5.9575 18.1875 -4.9375 18.1875 C-4.9375 18.8475 -4.9375 19.5075 -4.9375 20.1875 C-1.6375 20.1875 1.6625 20.1875 5.0625 20.1875 C5.0625 18.5375 5.0625 16.8875 5.0625 15.1875 C1.1025 15.1875 -2.8575 15.1875 -6.9375 15.1875 C-8.31002731 12.44244537 -8.06979255 10.18422588 -8.0625 7.125 C-8.06507812 6.04089844 -8.06765625 4.95679687 -8.0703125 3.83984375 C-7.81059368 -1.34689389 -4.49186225 0.02280133 0 0 Z " fill="#F4F4F4" transform="translate(129.9375,109.8125)"/>
<path d="M0 0 C1.98 0 3.96 0 6 0 C7.4606285 2.64738916 8 3.89448334 8 7 C8.66 7 9.32 7 10 7 C10 27.79 10 48.58 10 70 C9.34 70 8.68 70 8 70 C8.00523682 69.21761963 8.01047363 68.43523926 8.01586914 67.62915039 C8.03657106 64.10694167 8.04963838 60.5847457 8.0625 57.0625 C8.07087891 55.83080078 8.07925781 54.59910156 8.08789062 53.33007812 C8.09111328 52.16025391 8.09433594 50.99042969 8.09765625 49.78515625 C8.10289307 48.70113525 8.10812988 47.61711426 8.11352539 46.50024414 C8.28426897 44.05950052 8.28426897 44.05950052 7 43 C6.9116033 40.6243148 6.88469695 38.27791326 6.90234375 35.90234375 C6.9037587 35.19348526 6.90517365 34.48462677 6.90663147 33.75428772 C6.91224557 31.48198288 6.92480037 29.20977525 6.9375 26.9375 C6.94251319 25.40039204 6.94707641 23.86328255 6.95117188 22.32617188 C6.96221958 18.55074358 6.97949359 14.77538829 7 11 C4.03 11 1.06 11 -2 11 C-2 20.9 -2 30.8 -2 41 C-4.31 41 -6.62 41 -9 41 C-9 40.67 -9 40.34 -9 40 C-7.02 40 -5.04 40 -3 40 C-3.02094727 39.12263184 -3.04189453 38.24526367 -3.06347656 37.34130859 C-3.131926 34.06483317 -3.18193051 30.78912488 -3.21972656 27.51220703 C-3.23975843 26.09802205 -3.26699248 24.68391903 -3.30175781 23.27001953 C-3.35065489 21.22928581 -3.37305123 19.1896531 -3.390625 17.1484375 C-3.4220459 15.31031494 -3.4220459 15.31031494 -3.45410156 13.43505859 C-2.91656458 9.36885144 -1.37990548 7.28052243 1 4 C0.88556744 1.68973726 0.88556744 1.68973726 0 0 Z " fill="#353130" transform="translate(132,67)"/>
<path d="M0 0 C5.28 0 10.56 0 16 0 C16 2.64 16 5.28 16 8 C13.525 7.505 13.525 7.505 11 7 C11 6.34 11 5.68 11 5 C8.03 5 5.06 5 2 5 C2 10.28 2 15.56 2 21 C4.97 21 7.94 21 11 21 C11 20.34 11 19.68 11 19 C12.32 19 13.64 19 15 19 C15.042721 20.66611905 15.04063832 22.33382885 15 24 C13.24440058 25.75559942 10.96417558 25.13221919 8.62890625 25.13671875 C7.92636719 25.13285156 7.22382812 25.12898438 6.5 25.125 C5.79746094 25.12886719 5.09492187 25.13273437 4.37109375 25.13671875 C-0.87338622 25.12661378 -0.87338622 25.12661378 -2 24 C-2.08700342 22.36527118 -2.10701063 20.72685945 -2.09765625 19.08984375 C-2.09443359 18.10048828 -2.09121094 17.11113281 -2.08789062 16.09179688 C-2.07951172 15.05087891 -2.07113281 14.00996094 -2.0625 12.9375 C-2.05798828 11.89271484 -2.05347656 10.84792969 -2.04882812 9.77148438 C-2.03699913 7.1809334 -2.02051689 4.59049441 -2 2 C-1.34 2 -0.68 2 0 2 C0 1.34 0 0.68 0 0 Z " fill="#ECECEC" transform="translate(99,109)"/>
<path d="M0 0 C0.66 0 1.32 0 2 0 C2.01030746 0.75658905 2.02061493 1.5131781 2.03123474 2.29269409 C2.13074348 9.55441981 2.23342138 16.81609153 2.33933926 24.07772636 C2.39364063 27.80765626 2.44687123 31.5375939 2.49731445 35.26757812 C2.74963569 53.85912833 3.16569222 72.42340227 4 91 C2.68 91 1.36 91 0 91 C0 60.97 0 30.94 0 0 Z " fill="#B7B633" transform="translate(42,45)"/>
<path d="M0 0 C0 29.7 0 59.4 0 90 C-0.66 89.67 -1.32 89.34 -2 89 C-2 60.29 -2 31.58 -2 2 C-2.66 1.67 -3.32 1.34 -4 1 C-2 0 -2 0 0 0 Z " fill="#505128" transform="translate(42,45)"/>
<path d="M0 0 C0.66 0 1.32 0 2 0 C2 25.41 2 50.82 2 77 C1.67 77 1.34 77 1 77 C0.67 67.76 0.34 58.52 0 49 C-0.33 49 -0.66 49 -1 49 C-1.0252689 42.18238106 -1.04283244 35.36477411 -1.05493164 28.54711914 C-1.05997333 26.22582549 -1.06680651 23.90453503 -1.07543945 21.58325195 C-1.08751225 18.25471205 -1.09322979 14.92621398 -1.09765625 11.59765625 C-1.10281754 10.55287613 -1.10797882 9.50809601 -1.11329651 8.43165588 C-1.11337204 7.47073532 -1.11344757 6.50981476 -1.11352539 5.51977539 C-1.115746 4.66928116 -1.11796661 3.81878693 -1.12025452 2.94252014 C-1 1 -1 1 0 0 Z " fill="#163140" transform="translate(31,51)"/>
<path d="M0 0 C2.45862401 -0.05383848 4.9160755 -0.09359038 7.375 -0.125 C8.42300781 -0.15013672 8.42300781 -0.15013672 9.4921875 -0.17578125 C11.32897486 -0.19344267 13.16601963 -0.10303261 15 0 C17 2 17 2 17.22705078 4.33837891 C17.21657715 5.29147949 17.20610352 6.24458008 17.1953125 7.2265625 C17.18886719 8.2578125 17.18242187 9.2890625 17.17578125 10.3515625 C17.15902344 11.43179688 17.14226562 12.51203125 17.125 13.625 C17.11597656 14.71296875 17.10695312 15.8009375 17.09765625 16.921875 C17.07403409 19.61480152 17.04109556 22.30729255 17 25 C13.00864328 27.24035923 10.32002918 27.04815085 5.75 26.625 C4.48671875 26.51414063 3.2234375 26.40328125 1.921875 26.2890625 C0.95765625 26.19367188 -0.0065625 26.09828125 -1 26 C-1 25.67 -1 25.34 -1 25 C3.95 24.67 8.9 24.34 14 24 C14.33 20.04 14.66 16.08 15 12 C8.07 11.505 8.07 11.505 1 11 C1 6 1 6 2 5 C3.68608966 4.92794489 5.37500659 4.91613932 7.0625 4.9375 C7.98160156 4.94652344 8.90070313 4.95554687 9.84765625 4.96484375 C10.55792969 4.97644531 11.26820313 4.98804687 12 5 C12 5.99 12 6.98 12 8 C12.99 8 13.98 8 15 8 C14.34 6.02 13.68 4.04 13 2 C8.71 1.67 4.42 1.34 0 1 C0 0.67 0 0.34 0 0 Z " fill="#9D9D9D" transform="translate(124,109)"/>
<path d="M0 0 C1.33333333 0 2.66666667 0 4 0 C4 9.24 4 18.48 4 28 C0.37 28 -3.26 28 -7 28 C-10.1875 24.5 -10.1875 24.5 -12 21 C-12.33 22.98 -12.66 24.96 -13 27 C-13.33 27 -13.66 27 -14 27 C-14.33 22.05 -14.66 17.1 -15 12 C-10.99434816 16.00565184 -8.87285368 18.60775724 -6.30859375 23.328125 C-4.91973463 25.45531285 -4.91973463 25.45531285 -1 26 C-0.67 17.42 -0.34 8.84 0 0 Z " fill="#555554" transform="translate(66,109)"/>
<path d="M0 0 C-1.17744585 3.53233755 -1.95605641 3.86308075 -5.0625 5.6875 C-5.79597656 6.12449219 -6.52945313 6.56148437 -7.28515625 7.01171875 C-7.85105469 7.33785156 -8.41695313 7.66398438 -9 8 C-9 7.34 -9 6.68 -9 6 C-42 5.67 -75 5.34 -109 5 C-109 4.67 -109 4.34 -109 4 C-76 4 -43 4 -9 4 C-8.67 3.34 -8.34 2.68 -8 2 C-5.09740189 0.6250851 -3.23861295 0 0 0 Z " fill="#2AC800" transform="translate(150,136)"/>
<path d="M0 0 C0.69649658 0.02094727 1.39299316 0.04189453 2.1105957 0.06347656 C2.86791992 0.07636719 3.62524414 0.08925781 4.40551758 0.10253906 C5.58404297 0.1528125 5.58404297 0.1528125 6.78637695 0.20410156 C7.58366211 0.22214844 8.38094727 0.24019531 9.20239258 0.25878906 C11.16840144 0.3058791 13.13379189 0.37762258 15.09887695 0.45410156 C15.09887695 0.78410156 15.09887695 1.11410156 15.09887695 1.45410156 C10.14887695 1.45410156 5.19887695 1.45410156 0.09887695 1.45410156 C0.09887695 2.11410156 0.09887695 2.77410156 0.09887695 3.45410156 C-0.56112305 3.45410156 -1.22112305 3.45410156 -1.90112305 3.45410156 C-1.76295345 7.10026827 -1.61430771 10.74593231 -1.46362305 14.39160156 C-1.42430664 15.43251953 -1.38499023 16.4734375 -1.34448242 17.54589844 C-1.30258789 18.53525391 -1.26069336 19.52460937 -1.2175293 20.54394531 C-1.18087158 21.46038818 -1.14421387 22.37683105 -1.10644531 23.32104492 C-1.13108441 25.43617437 -1.13108441 25.43617437 0.09887695 26.45410156 C3.4609676 26.73879472 6.82301697 26.90305219 10.19262695 27.07519531 C11.6312207 27.26275391 11.6312207 27.26275391 13.09887695 27.45410156 C13.42887695 28.11410156 13.75887695 28.77410156 14.09887695 29.45410156 C11.84914248 29.50823956 9.59903313 29.54695647 7.34887695 29.57910156 C6.0959082 29.60230469 4.84293945 29.62550781 3.55200195 29.64941406 C0.35926879 29.46882961 -1.3114424 29.25179249 -3.90112305 27.45410156 C-5.77466461 23.70701843 -5.12913091 19.20262803 -5.15112305 15.07910156 C-5.17174805 14.12003906 -5.19237305 13.16097656 -5.21362305 12.17285156 C-5.2187793 11.24730469 -5.22393555 10.32175781 -5.22924805 9.36816406 C-5.23859375 8.52205566 -5.24793945 7.67594727 -5.25756836 6.80419922 C-4.73656711 3.36915947 -3.54931956 0.84778918 0 0 Z " fill="#6B6B6B" transform="translate(98.901123046875,107.5458984375)"/>
<path d="M0 0 C2.33524782 2.25740623 4.18705073 4.2805761 6 7 C8.62925352 7.31619045 11.02858854 7.43741162 13.66259766 7.43237305 C14.84809456 7.44766052 14.84809456 7.44766052 16.05754089 7.46325684 C18.67645236 7.49351208 21.29499886 7.50267166 23.9140625 7.51171875 C25.72725655 7.52855619 27.54043886 7.54670515 29.35360718 7.56611633 C34.13098482 7.61372417 38.9083149 7.6434636 43.68585205 7.66955566 C48.55889283 7.69930697 53.43176947 7.74585582 58.3046875 7.79101562 C67.869706 7.87717131 77.43475817 7.94446185 87 8 C87 8.33 87 8.66 87 9 C55.65 9 24.3 9 -8 9 C-8 8.67 -8 8.34 -8 8 C-4.535 7.505 -4.535 7.505 -1 7 C-0.67 4.69 -0.34 2.38 0 0 Z " fill="#20401D" transform="translate(53,129)"/>
<path d="M0 0 C0.99 0 1.98 0 3 0 C3 1.32 3 2.64 3 4 C2.34 4 1.68 4 1 4 C1 5.32 1 6.64 1 8 C0.01 8 -0.98 8 -2 8 C-2 18.23 -2 28.46 -2 39 C-2.99 39 -3.98 39 -5 39 C-5 28.44 -5 17.88 -5 7 C-4.34 7 -3.68 7 -3 7 C-3 6.01 -3 5.02 -3 4 C-2.34 3.67 -1.68 3.34 -1 3 C-0.67 2.01 -0.34 1.02 0 0 Z " fill="#102434" transform="translate(128,67)"/>
<path d="M0 0 C0.99 0.66 1.98 1.32 3 2 C1.25 7.75 1.25 7.75 -1 10 C-1.37296556 13.00972657 -1.37296556 13.00972657 -1.4140625 16.5390625 C-1.45273438 17.84101562 -1.49140625 19.14296875 -1.53125 20.484375 C-1.56270763 21.86457862 -1.59395491 23.24478704 -1.625 24.625 C-1.66317934 26.01304541 -1.70223105 27.40106711 -1.7421875 28.7890625 C-1.83672943 32.19257185 -1.92227897 35.59607165 -2 39 C-2.99 39 -3.98 39 -5 39 C-5 28.77 -5 18.54 -5 8 C-4.01 8 -3.02 8 -2 8 C-2 6.68 -2 5.36 -2 4 C-1.34 4 -0.68 4 0 4 C0 2.68 0 1.36 0 0 Z " fill="#495050" transform="translate(131,67)"/>
<path d="M0 0 C0.99 0 1.98 0 3 0 C3 12.54 3 25.08 3 38 C2.01 37.67 1.02 37.34 0 37 C0 24.79 0 12.58 0 0 Z " fill="#B75712" transform="translate(87,71)"/>
<path d="M0 0 C3.75 0.5 3.75 0.5 5.32421875 1.95703125 C7.5509305 4.98765613 8.75 6.6602073 8.75 10.5 C9.41 10.5 10.07 10.5 10.75 10.5 C10.75 11.49 10.75 12.48 10.75 13.5 C6.93985068 12.22995023 6.57372543 10.98886603 4.75 7.5 C4.05177383 5.84630643 3.37501395 4.18272986 2.75 2.5 C1.43 2.5 0.11 2.5 -1.25 2.5 C-1.25 10.75 -1.25 19 -1.25 27.5 C0.4 27.83 2.05 28.16 3.75 28.5 C3.75 28.83 3.75 29.16 3.75 29.5 C0.78 29.5 -2.19 29.5 -5.25 29.5 C-4.59 28.84 -3.93 28.18 -3.25 27.5 C-3.08201156 24.79302559 -3.08201156 24.79302559 -3.30859375 21.65234375 C-3.36466797 20.49025391 -3.42074219 19.32816406 -3.47851562 18.13085938 C-3.58196289 16.30264648 -3.58196289 16.30264648 -3.6875 14.4375 C-3.81567034 12.03018187 -3.93960804 9.62263332 -4.05859375 7.21484375 C-4.11845459 6.14355225 -4.17831543 5.07226074 -4.23999023 3.96850586 C-4.24329346 3.15389893 -4.24659668 2.33929199 -4.25 1.5 C-3.25 0.5 -3.25 0.5 0 0 Z " fill="#676869" transform="translate(48.25,107.5)"/>
<path d="M0 0 C0.66 0 1.32 0 2 0 C2 20.46 2 40.92 2 62 C1.34 62 0.68 62 0 62 C0.00523682 61.22809326 0.01047363 60.45618652 0.01586914 59.66088867 C0.03663242 56.16976737 0.04965811 52.67865905 0.0625 49.1875 C0.07087891 47.97255859 0.07925781 46.75761719 0.08789062 45.50585938 C0.09111328 44.34248047 0.09433594 43.17910156 0.09765625 41.98046875 C0.10289307 40.90692139 0.10812988 39.83337402 0.11352539 38.72729492 C0.12194588 35.90500635 0.12194588 35.90500635 -1 33 C-1.01623075 30.48277556 -0.97509148 28.00133305 -0.87890625 25.48828125 C-0.85529526 24.76005661 -0.83168427 24.03183197 -0.80735779 23.28153992 C-0.7308565 20.9583216 -0.6467744 18.63544807 -0.5625 16.3125 C-0.50926573 14.73634493 -0.45652542 13.16017309 -0.40429688 11.58398438 C-0.27525978 7.7224384 -0.13942375 3.86118434 0 0 Z " fill="#2C2A2B" transform="translate(140,75)"/>
<path d="M0 0 C0 0.99 0 1.98 0 3 C0.66 3.66 1.32 4.32 2 5 C1.01 5 0.02 5 -1 5 C-1 5.66 -1 6.32 -1 7 C-2.78953185 7.83790789 -4.58169695 8.67019396 -6.375 9.5 C-7.37273438 9.9640625 -8.37046875 10.428125 -9.3984375 10.90625 C-12 12 -12 12 -14 12 C-14 9.36 -14 6.72 -14 4 C-12.0429132 3.32968281 -10.08428887 2.66385317 -8.125 2 C-7.03445312 1.62875 -5.94390625 1.2575 -4.8203125 0.875 C-2 0 -2 0 0 0 Z " fill="#1AD306" transform="translate(14,121)"/>
<path d="M0 0 C0 0.66 0 1.32 0 2 C1.65 2 3.3 2 5 2 C5 2.66 5 3.32 5 4 C2.36 4 -0.28 4 -3 4 C-3 3.34 -3 2.68 -3 2 C-3.99 2 -4.98 2 -6 2 C-5.67 4.31 -5.34 6.62 -5 9 C0.61 9 6.22 9 12 9 C12 9.66 12 10.32 12 11 C9.06195004 11.08086376 6.12611925 11.1404283 3.1875 11.1875 C1.93743164 11.22520508 1.93743164 11.22520508 0.66210938 11.26367188 C-0.54155273 11.27817383 -0.54155273 11.27817383 -1.76953125 11.29296875 C-2.87711792 11.31653442 -2.87711792 11.31653442 -4.00708008 11.34057617 C-6.55909405 10.90445471 -7.42860853 10.01686382 -9 8 C-9.39078556 5.27492202 -9.13616953 2.76878044 -9 0 C-5.93109813 -1.53445094 -3.29905734 -0.54984289 0 0 Z " fill="#717271" transform="translate(128,126)"/>
<path d="M0 0 C6.27 0 12.54 0 19 0 C19 13.2 19 26.4 19 40 C18.67 40 18.34 40 18 40 C17.83096719 37.45847098 17.66470573 34.91681012 17.5 32.375 C17.45230469 31.66214844 17.40460938 30.94929688 17.35546875 30.21484375 C17.28779297 29.16103516 17.28779297 29.16103516 17.21875 28.0859375 C17.17363281 27.39338867 17.12851563 26.70083984 17.08203125 25.98730469 C17.00798369 24.19341444 17.07378916 22.3950857 17.15625 20.6015625 C17.07890625 19.31378906 17.07890625 19.31378906 17 18 C16.01 17.34 15.02 16.68 14 16 C14.99 16 15.98 16 17 16 C17 11.05 17 6.1 17 1 C11.39 1 5.78 1 0 1 C0 0.67 0 0.34 0 0 Z " fill="#282726" transform="translate(104,57)"/>
<path d="M0 0 C4.62 0 9.24 0 14 0 C13.67 1.32 13.34 2.64 13 4 C13 3.01 13 2.02 13 1 C10.36 1 7.72 1 5 1 C4.67 2.65 4.34 4.3 4 6 C-2.75 8.125 -2.75 8.125 -5 7 C-5 14.26 -5 21.52 -5 29 C-5.33 29 -5.66 29 -6 29 C-6 21.41 -6 13.82 -6 6 C-5.01 6 -4.02 6 -3 6 C-3 5.34 -3 4.68 -3 4 C-2.34 4 -1.68 4 -1 4 C-0.67 2.68 -0.34 1.36 0 0 Z " fill="#284563" transform="translate(77,60)"/>
<path d="M0 0 C1.98 0 3.96 0 6 0 C6 8.91 6 17.82 6 27 C4.35 26.67 2.7 26.34 1 26 C1.99 25.67 2.98 25.34 4 25 C4 17.41 4 9.82 4 2 C3.01 2 2.02 2 1 2 C1 6.62 1 11.24 1 16 C0.34 15.67 -0.32 15.34 -1 15 C-0.67 10.05 -0.34 5.1 0 0 Z " fill="#B3B3B3" transform="translate(60,109)"/>
<path d="M0 0 C1.98 0 3.96 0 6 0 C-3.21339321 9.21339321 -22.90446475 9.17605149 -34.9206543 9.19067383 C-39.38602928 9.15020215 -43.60600057 8.89600315 -48 8 C-48 7.67 -48 7.34 -48 7 C-46.9644397 7.00785522 -46.9644397 7.00785522 -45.90795898 7.01586914 C-42.75114874 7.03677867 -39.59435314 7.04970442 -36.4375 7.0625 C-35.35146484 7.07087891 -34.26542969 7.07925781 -33.14648438 7.08789062 C-27.66486685 7.10455208 -22.38551717 7.08012476 -17 6 C-16.67 5.67 -16.34 5.34 -16 5 C-14.00041636 4.95919217 -11.99954746 4.95745644 -10 5 C-10 4.34 -10 3.68 -10 3 C-6.7 2.67 -3.4 2.34 0 2 C0 1.34 0 0.68 0 0 Z " fill="#89B576" transform="translate(111,157)"/>
<path d="M0 0 C5.61 0 11.22 0 17 0 C17 1.98 17 3.96 17 6 C13.65626525 5.44271087 10.96687001 4.64826111 8 3 C7.67 3.99 7.34 4.98 7 6 C7 5.34 7 4.68 7 4 C5.35 3.67 3.7 3.34 2 3 C1.67 3.99 1.34 4.98 1 6 C0.67 4.02 0.34 2.04 0 0 Z " fill="#434242" transform="translate(104,58)"/>
<path d="M0 0 C0.33 0 0.66 0 1 0 C1 8.25 1 16.5 1 25 C4.8671875 24.7834375 4.8671875 24.7834375 8.8125 24.5625 C9.62050049 24.51939697 10.42850098 24.47629395 11.26098633 24.43188477 C14.37409057 24.24715282 17.02850917 23.99049694 20 23 C20 15.74 20 8.48 20 1 C20.33 1 20.66 1 21 1 C21.086985 4.77068832 21.14038579 8.54111932 21.1875 12.3125 C21.21263672 13.38435547 21.23777344 14.45621094 21.26367188 15.56054688 C21.27333984 16.58857422 21.28300781 17.61660156 21.29296875 18.67578125 C21.3086792 19.62364502 21.32438965 20.57150879 21.34057617 21.5480957 C21 24 21 24 19.74609375 25.828125 C17.53760273 27.31033374 16.40249766 27.27962748 13.76953125 27.07421875 C13.04612549 27.02612061 12.32271973 26.97802246 11.57739258 26.9284668 C10.66497803 26.84894775 9.75256348 26.76942871 8.8125 26.6875 C5.904375 26.460625 2.99625 26.23375 0 26 C0 17.42 0 8.84 0 0 Z " fill="#676767" transform="translate(71,110)"/>
<path d="M0 0 C0.66 0.33 1.32 0.66 2 1 C0 4 0 4 -3 5 C-4.646476 6.62428096 -4.646476 6.62428096 -6.25 8.625 C-8.69510077 11.5009784 -11.17319799 14.30008772 -13.8125 17 C-14.37582031 17.5775 -14.93914063 18.155 -15.51953125 18.75 C-17 20 -17 20 -19 20 C-19 20.66 -19 21.32 -19 22 C-19.66 22 -20.32 22 -21 22 C-16.77687503 12.7542264 -8.01122707 5.91516322 0 0 Z " fill="#5798D8" transform="translate(42,22)"/>
<path d="M0 0 C0.495 0.99 0.495 0.99 1 2 C-0.08099976 2.07516846 -0.08099976 2.07516846 -1.18383789 2.15185547 C-4.47732031 2.38523311 -7.76986129 2.63001744 -11.0625 2.875 C-12.19623047 2.95363281 -13.32996094 3.03226563 -14.49804688 3.11328125 C-20.2890512 3.55224951 -25.47818723 4.21877007 -31 6 C-34.4375 6.125 -34.4375 6.125 -37 6 C-26.14215239 -1.23856508 -12.51383092 -0.26688265 0 0 Z " fill="#2379CD" transform="translate(94,11)"/>
<path d="M0 0 C5.50632911 5.50632911 5.50632911 5.50632911 7.5 9.1875 C9.19022259 12.03673237 9.79405773 12.89016412 12.8125 14.5 C13.534375 14.665 14.25625 14.83 15 15 C15 15.33 15 15.66 15 16 C11.8125 16.4375 11.8125 16.4375 8 16 C5.88841619 13.91454966 4.43260857 11.58793807 3 9 C2.67 10.98 2.34 12.96 2 15 C1.67 15 1.34 15 1 15 C0.67 10.05 0.34 5.1 0 0 Z " fill="#707070" transform="translate(51,121)"/>
<path d="M0 0 C1.47906892 -0.02689216 2.95827483 -0.04634621 4.4375 -0.0625 C5.26121094 -0.07410156 6.08492188 -0.08570312 6.93359375 -0.09765625 C9 0 9 0 10 1 C10 2.65 10 4.3 10 6 C6.7 6 3.4 6 0 6 C0 4.02 0 2.04 0 0 Z " fill="#636363" transform="translate(76,124)"/>
<path d="M0 0 C0 8.91 0 17.82 0 27 C-0.33 27 -0.66 27 -1 27 C-1.33 19.41 -1.66 11.82 -2 4 C-4.31 6.64 -6.62 9.28 -9 12 C-9 7.49001576 -6.87971232 4.98634411 -3.9375 1.6875 C-2 0 -2 0 0 0 Z " fill="#0EBB01" transform="translate(30,102)"/>
<path d="M0 0 C2.33294775 -0.04241723 4.66702567 -0.04092937 7 0 C8 1 8 1 8.1875 3.875 C8 7 8 7 6 10 C3.19564589 10.05632424 0.64853322 9.95814702 -2.125 9.6875 C-2.87910156 9.62626953 -3.63320312 9.56503906 -4.41015625 9.50195312 C-6.27463438 9.3485467 -8.13752498 9.17606541 -10 9 C-10 8.67 -10 8.34 -10 8 C-5.38 7.67 -0.76 7.34 4 7 C4.33 5.35 4.66 3.7 5 2 C3.35 1.67 1.7 1.34 0 1 C0 0.67 0 0.34 0 0 Z " fill="#A1A1A1" transform="translate(109,126)"/>
<path d="M0 0 C1.32 0.66 2.64 1.32 4 2 C4 6.29 4 10.58 4 15 C-0.49919565 17.24959782 -2.34439425 17.07922275 -7.25 16.625 C-8.51328125 16.51414063 -9.7765625 16.40328125 -11.078125 16.2890625 C-12.04234375 16.19367188 -13.0065625 16.09828125 -14 16 C-14 15.67 -14 15.34 -14 15 C-9.05 14.67 -4.1 14.34 1 14 C1.33 10.04 1.66 6.08 2 2 C1.34 2 0.68 2 0 2 C0 1.34 0 0.68 0 0 Z " fill="#ACACAD" transform="translate(137,119)"/>
<path d="M0 0 C3.3 0 6.6 0 10 0 C10 1.65 10 3.3 10 5 C6.7 5 3.4 5 0 5 C0 3.35 0 1.7 0 0 Z " fill="#7B7B7B" transform="translate(76,115)"/>
<path d="M0 0 C0.33 1.32 0.66 2.64 1 4 C2.32 4 3.64 4 5 4 C5 4.99 5 5.98 5 7 C3.68 7 2.36 7 1 7 C1 8.65 1 10.3 1 12 C2.32 12 3.64 12 5 12 C5 13.32 5 14.64 5 16 C3.68 16 2.36 16 1 16 C0.67 16.99 0.34 17.98 0 19 C-0.66 19 -1.32 19 -2 19 C-2 18.34 -2 17.68 -2 17 C-1.34 17 -0.68 17 0 17 C0 11.39 0 5.78 0 0 Z " fill="#606161" transform="translate(104,65)"/>
<path d="M0 0 C2.97922593 -0.02683987 5.95821295 -0.04676037 8.9375 -0.0625 C9.78763672 -0.07087891 10.63777344 -0.07925781 11.51367188 -0.08789062 C12.32255859 -0.09111328 13.13144531 -0.09433594 13.96484375 -0.09765625 C14.7137085 -0.10289307 15.46257324 -0.10812988 16.23413086 -0.11352539 C18 0 18 0 19 1 C19.08713831 2.70772358 19.10700007 4.41898649 19.09765625 6.12890625 C19.09443359 7.16337891 19.09121094 8.19785156 19.08789062 9.26367188 C19.07951172 10.35228516 19.07113281 11.44089844 19.0625 12.5625 C19.05798828 13.65498047 19.05347656 14.74746094 19.04882812 15.87304688 C19.03699826 18.58208495 19.02051543 21.29101599 19 24 C18.34 23.67 17.68 23.34 17 23 C17.00523682 22.39937744 17.01047363 21.79875488 17.01586914 21.17993164 C17.03658014 18.47413162 17.04964125 15.76834823 17.0625 13.0625 C17.07087891 12.11697266 17.07925781 11.17144531 17.08789062 10.19726562 C17.09111328 9.29814453 17.09433594 8.39902344 17.09765625 7.47265625 C17.10289307 6.64000244 17.10812988 5.80734863 17.11352539 4.94946289 C17.21643292 2.99483202 17.21643292 2.99483202 16 2 C13.30764224 1.76321284 10.63501844 1.57801975 7.9375 1.4375 C7.17888672 1.39431641 6.42027344 1.35113281 5.63867188 1.30664062 C3.75934562 1.20026367 1.87969756 1.09960066 0 1 C0 0.67 0 0.34 0 0 Z " fill="#B8B8B8" transform="translate(72,109)"/>
<path d="M0 0 C0.33 0 0.66 0 1 0 C1 1.98 1 3.96 1 6 C2.32 6 3.64 6 5 6 C5 7.32 5 8.64 5 10 C3.68 10 2.36 10 1 10 C1 11.98 1 13.96 1 16 C2.32 16 3.64 16 5 16 C5 17.32 5 18.64 5 20 C3.0625 19.625 3.0625 19.625 1 19 C-0.65497356 15.69005287 -0.10084335 12.00877 -0.0625 8.375 C-0.05798828 7.57320312 -0.05347656 6.77140625 -0.04882812 5.9453125 C-0.03703168 3.96350994 -0.01909605 1.98174567 0 0 Z " fill="#78797B" transform="translate(45,47)"/>
<path d="M0 0 C1.57043101 0.01330874 3.14079971 0.03717648 4.7109375 0.0703125 C5.51273438 0.07933594 6.31453125 0.08835937 7.140625 0.09765625 C9.12252273 0.12125027 11.10426731 0.15712185 13.0859375 0.1953125 C13.0859375 0.5253125 13.0859375 0.8553125 13.0859375 1.1953125 C8.1359375 1.1953125 3.1859375 1.1953125 -1.9140625 1.1953125 C-1.9140625 1.8553125 -1.9140625 2.5153125 -1.9140625 3.1953125 C-2.5740625 3.1953125 -3.2340625 3.1953125 -3.9140625 3.1953125 C-3.9140625 10.1253125 -3.9140625 17.0553125 -3.9140625 24.1953125 C-4.2440625 24.1953125 -4.5740625 24.1953125 -4.9140625 24.1953125 C-5.13929274 20.57115317 -5.34137558 16.94607031 -5.5390625 13.3203125 C-5.60351562 12.28777344 -5.66796875 11.25523438 -5.734375 10.19140625 C-5.7859375 9.20527344 -5.8375 8.21914062 -5.890625 7.203125 C-5.94299316 6.29191895 -5.99536133 5.38071289 -6.04931641 4.44189453 C-5.79246089 0.17549657 -3.99356741 0.19927981 0 0 Z " fill="#818181" transform="translate(100.9140625,107.8046875)"/>
<path d="M0 0 C0.33 0 0.66 0 1 0 C1 3.96 1 7.92 1 12 C2.65 12 4.3 12 6 12 C6.33 11.34 6.66 10.68 7 10 C7.66 10.66 8.32 11.32 9 12 C8.67 12.66 8.34 13.32 8 14 C5.03 14 2.06 14 -1 14 C-1.02685938 11.85423363 -1.04633088 9.70837355 -1.0625 7.5625 C-1.07410156 6.36753906 -1.08570312 5.17257813 -1.09765625 3.94140625 C-1 1 -1 1 0 0 Z " fill="#8C8C8C" transform="translate(102,116)"/>
<path d="M0 0 C2.45862401 -0.05383848 4.9160755 -0.09359038 7.375 -0.125 C8.42300781 -0.15013672 8.42300781 -0.15013672 9.4921875 -0.17578125 C11.32897486 -0.19344267 13.16601963 -0.10303261 15 0 C17 2 17 2 17.125 5.625 C17.08375 6.73875 17.0425 7.8525 17 9 C15.35 9 13.7 9 12 9 C12.99 8.67 13.98 8.34 15 8 C14.34 6.02 13.68 4.04 13 2 C8.71 1.67 4.42 1.34 0 1 C0 0.67 0 0.34 0 0 Z " fill="#ABACAC" transform="translate(124,109)"/>
<path d="M0 0 C0 0.99 0 1.98 0 3 C0.66 3.66 1.32 4.32 2 5 C1.01 5 0.02 5 -1 5 C-1 5.66 -1 6.32 -1 7 C-2.32 7.33 -3.64 7.66 -5 8 C-4.67 6.35 -4.34 4.7 -4 3 C-5.65 3 -7.3 3 -9 3 C-5.87496336 0.91664224 -3.72863529 0 0 0 Z " fill="#47D53A" transform="translate(14,121)"/>
<path d="M0 0 C2.75 -0.375 2.75 -0.375 6 0 C8.63908792 3.12523569 10 4.86465853 10 9 C10.66 9 11.32 9 12 9 C12 9.99 12 10.98 12 12 C8.18985068 10.72995023 7.82372543 9.48886603 6 6 C5.690625 5.0925 5.38125 4.185 5.0625 3.25 C4.22545065 0.80524198 4.22545065 0.80524198 1.875 0.1875 C1.25625 0.125625 0.6375 0.06375 0 0 Z " fill="#A4A4A4" transform="translate(47,109)"/>
<path d="M0 0 C-1.17744585 3.53233755 -1.95605641 3.86308075 -5.0625 5.6875 C-5.79597656 6.12449219 -6.52945313 6.56148437 -7.28515625 7.01171875 C-7.85105469 7.33785156 -8.41695312 7.66398438 -9 8 C-9 7.34 -9 6.68 -9 6 C-9.66 5.67 -10.32 5.34 -11 5 C-7.92351092 1.43774949 -4.70156256 0 0 0 Z " fill="#4ACA31" transform="translate(150,136)"/>
<path d="M0 0 C1.38294718 0.01329757 2.76582404 0.03715018 4.1484375 0.0703125 C4.85484375 0.07933594 5.56125 0.08835937 6.2890625 0.09765625 C8.03399848 0.12123647 9.77876045 0.15710789 11.5234375 0.1953125 C11.5234375 0.5253125 11.5234375 0.8553125 11.5234375 1.1953125 C10.13318359 1.28619141 10.13318359 1.28619141 8.71484375 1.37890625 C6.91853516 1.50458984 6.91853516 1.50458984 5.0859375 1.6328125 C3.89097656 1.71402344 2.69601563 1.79523438 1.46484375 1.87890625 C-1.36226494 1.87187364 -1.36226494 1.87187364 -2.4765625 3.1953125 C-2.71020131 5.04423196 -2.88959885 6.90019281 -3.0390625 8.7578125 C-3.12285156 9.76972656 -3.20664063 10.78164062 -3.29296875 11.82421875 C-3.35355469 12.60667969 -3.41414063 13.38914062 -3.4765625 14.1953125 C-3.8065625 14.1953125 -4.1365625 14.1953125 -4.4765625 14.1953125 C-4.69798505 12.23841591 -4.9033193 10.27969298 -5.1015625 8.3203125 C-5.21757813 7.22976562 -5.33359375 6.13921875 -5.453125 5.015625 C-5.46085937 4.08492188 -5.46859375 3.15421875 -5.4765625 2.1953125 C-3.4765625 0.1953125 -3.4765625 0.1953125 0 0 Z " fill="#8A8080" transform="translate(125.4765625,107.8046875)"/>
<path d="M0 0 C5.35852494 0.39208719 9.14168125 2.3357387 13 6 C13 6.66 13 7.32 13 8 C7.73691968 6.58795406 4.2437012 4.31008693 0 1 C0 0.67 0 0.34 0 0 Z " fill="#6D975E" transform="translate(34,150)"/>
<path d="M0 0 C0.66 0.33 1.32 0.66 2 1 C0.515 3.475 0.515 3.475 -1 6 C2.465 5.505 2.465 5.505 6 5 C3.3144406 7.6855594 0.62378672 8.06049974 -3 9 C-3 6.36 -3 3.72 -3 1 C-2.01 0.67 -1.02 0.34 0 0 Z " fill="#63D653" transform="translate(3,124)"/>
<path d="M0 0 C0.33 0 0.66 0 1 0 C1 7.59 1 15.18 1 23 C-0.98 23.99 -0.98 23.99 -3 25 C-2.505 23.515 -2.505 23.515 -2 22 C-1.34 22 -0.68 22 0 22 C0 14.74 0 7.48 0 0 Z " fill="#7A7A7A" transform="translate(91,111)"/>
<path d="M0 0 C0.99 0 1.98 0 3 0 C3 1.32 3 2.64 3 4 C2.34 4 1.68 4 1 4 C1 5.32 1 6.64 1 8 C-0.65 8 -2.3 8 -4 8 C-3.625 6.0625 -3.625 6.0625 -3 4 C-2.34 3.67 -1.68 3.34 -1 3 C-0.67 2.01 -0.34 1.02 0 0 Z " fill="#16314C" transform="translate(128,67)"/>
<path d="M0 0 C2.66735273 2.48952921 4.55746343 4.63408134 6 8 C3.69 8 1.38 8 -1 8 C-0.67 5.36 -0.34 2.72 0 0 Z " fill="#3A3A39" transform="translate(53,129)"/>
<path d="M0 0 C2.31 0.33 4.62 0.66 7 1 C7 1.66 7 2.32 7 3 C8.65 3 10.3 3 12 3 C12 3.66 12 4.32 12 5 C9.36 5 6.72 5 4 5 C4 4.34 4 3.68 4 3 C2.35 2.67 0.7 2.34 -1 2 C-0.67 1.34 -0.34 0.68 0 0 Z " fill="#929292" transform="translate(121,125)"/>
<path d="M0 0 C0.33 0.66 0.66 1.32 1 2 C3.52733235 2.65555119 3.52733235 2.65555119 6 3 C4 5 4 5 0.875 5.125 C-0.07375 5.08375 -1.0225 5.0425 -2 5 C-2 4.34 -2 3.68 -2 3 C-3.65 3 -5.3 3 -7 3 C-7 2.34 -7 1.68 -7 1 C-2.25 0 -2.25 0 0 0 Z " fill="#696969" transform="translate(135,115)"/>
<path d="M0 0 C0.33 0 0.66 0 1 0 C1 1.98 1 3.96 1 6 C2.32 6 3.64 6 5 6 C5 7.32 5 8.64 5 10 C3.68 10 2.36 10 1 10 C0.67 10.66 0.34 11.32 0 12 C0 8.04 0 4.08 0 0 Z " fill="#6D6E71" transform="translate(45,68)"/>
<path d="M0 0 C-1.36370299 2.99220268 -2.94908083 5.29026529 -5.125 7.75 C-5.93324219 8.67039062 -5.93324219 8.67039062 -6.7578125 9.609375 C-7.16773437 10.06828125 -7.57765625 10.5271875 -8 11 C-8 6.77976043 -6.14803534 4.331721 -3.4375 1.1875 C-2 0 -2 0 0 0 Z " fill="#0BE407" transform="translate(29,103)"/>
<path d="M0 0 C2.31 0 4.62 0 7 0 C7 1.65 7 3.3 7 5 C6.34 5 5.68 5 5 5 C5 4.34 5 3.68 5 3 C3.35 3 1.7 3 0 3 C0 2.01 0 1.02 0 0 Z " fill="#646464" transform="translate(128,125)"/>
<path d="M0 0 C1.32 1.32 2.64 2.64 4 4 C3.67 4.99 3.34 5.98 3 7 C2.78444749 8.3917773 2.59806254 9.78831216 2.4375 11.1875 C2.293125 12.445625 2.14875 13.70375 2 15 C1.67 15 1.34 15 1 15 C0.67 10.05 0.34 5.1 0 0 Z " fill="#7B7B7C" transform="translate(51,121)"/>
<path d="M0 0 C0.99 0 1.98 0 3 0 C3 1.32 3 2.64 3 4 C2.34 4 1.68 4 1 4 C1 4.99 1 5.98 1 7 C0.01 7 -0.98 7 -2 7 C-1.125 1.125 -1.125 1.125 0 0 Z " fill="#142C44" transform="translate(77,60)"/>
<path d="M0 0 C-0.309375 0.598125 -0.61875 1.19625 -0.9375 1.8125 C-2.10209704 4.08956772 -2.10209704 4.08956772 -3 7 C-3.99 7.33 -4.98 7.66 -6 8 C-5.6875 5.125 -5.6875 5.125 -5 2 C-2 0 -2 0 0 0 Z " fill="#428BD4" transform="translate(20,49)"/>
<path d="M0 0 C1.32 0.33 2.64 0.66 4 1 C3.67 1.33 3.34 1.66 3 2 C2.76924918 3.34747084 2.58846937 4.70377565 2.4375 6.0625 C2.2209375 8.0115625 2.2209375 8.0115625 2 10 C1.34 10 0.68 10 0 10 C0 6.7 0 3.4 0 0 Z " fill="#2F2F2F" transform="translate(103,117)"/>
<path d="M0 0 C5.94 0 11.88 0 18 0 C18.33 0.99 18.66 1.98 19 3 C18.01 2.67 17.02 2.34 16 2 C13.26710707 1.77202438 10.54957796 1.58331813 7.8125 1.4375 C7.06291016 1.39431641 6.31332031 1.35113281 5.54101562 1.30664062 C3.69421625 1.20077315 1.84713166 1.0999024 0 1 C0 0.67 0 0.34 0 0 Z " fill="#A7A7A7" transform="translate(72,109)"/>
<path d="M0 0 C0.66 0.33 1.32 0.66 2 1 C0.37660195 2.70884005 -1.29319053 4.37446717 -3 6 C-3.66 6 -4.32 6 -5 6 C-5 6.66 -5 7.32 -5 8 C-5.66 8 -6.32 8 -7 8 C-5.79618552 5.50638429 -4.54571278 3.31856917 -3 1 C-2.01 0.67 -1.02 0.34 0 0 Z " fill="#468ED5" transform="translate(28,36)"/>
<path d="M0 0 C1.32 0.33 2.64 0.66 4 1 C1.69 2.65 -0.62 4.3 -3 6 C-3.33 5.01 -3.66 4.02 -4 3 C-2.25 1.4375 -2.25 1.4375 0 0 Z " fill="#5CD64A" transform="translate(155,130)"/>
<path d="M0 0 C4.12751449 0.60698743 7.3321148 2.03810791 11 4 C7.01178789 5.32940404 4.88269755 4.43803613 1 3 C0.67 2.01 0.34 1.02 0 0 Z " fill="#6EA6DC" transform="translate(114,15)"/>
<path d="M0 0 C-2.68841859 2.25245881 -4.64641875 3.88213958 -8 5 C-7.625 3.0625 -7.625 3.0625 -7 1 C-4.53721199 -0.231394 -2.7204945 -0.07159196 0 0 Z " fill="#63C44A" transform="translate(139,145)"/>
<path d="M0 0 C2.97 0 5.94 0 9 0 C9 0.33 9 0.66 9 1 C6.36 1 3.72 1 1 1 C1.66 2.65 2.32 4.3 3 6 C2.01 6 1.02 6 0 6 C0 4.02 0 2.04 0 0 Z " fill="#A9A9A9" transform="translate(76,124)"/>
<path d="M0 0 C2 2 2 2 2.125 5.125 C2.08375 6.07375 2.0425 7.0225 2 8 C1.01 8.33 0.02 8.66 -1 9 C-1.66 8.34 -2.32 7.68 -3 7 C-2.01 7 -1.02 7 0 7 C0 4.69 0 2.38 0 0 Z " fill="#868686" transform="translate(115,110)"/>
<path d="M0 0 C0.99 0.66 1.98 1.32 3 2 C2.34 3.65 1.68 5.3 1 7 C0.01 7 -0.98 7 -2 7 C-2 6.01 -2 5.02 -2 4 C-1.34 4 -0.68 4 0 4 C0 2.68 0 1.36 0 0 Z " fill="#444645" transform="translate(131,67)"/>
<path d="M0 0 C0.33 1.32 0.66 2.64 1 4 C2.32 4 3.64 4 5 4 C5 4.99 5 5.98 5 7 C3.35 7 1.7 7 0 7 C0 4.69 0 2.38 0 0 Z " fill="#727372" transform="translate(104,65)"/>
<path d="M0 0 C0.33 0 0.66 0 1 0 C1 1.65 1 3.3 1 5 C-1.31 5 -3.62 5 -6 5 C-6 4.34 -6 3.68 -6 3 C-5.195625 2.87625 -4.39125 2.7525 -3.5625 2.625 C-2.716875 2.41875 -1.87125 2.2125 -1 2 C-0.67 1.34 -0.34 0.68 0 0 Z " fill="#838383" transform="translate(85,125)"/>
<path d="M0 0 C1.32 0.66 2.64 1.32 4 2 C-1.75 5 -1.75 5 -4 5 C-4 4.01 -4 3.02 -4 2 C-2.68 2 -1.36 2 0 2 C0 1.34 0 0.68 0 0 Z " fill="#63B746" transform="translate(121,152)"/>
<path d="M0 0 C3.96 0.99 3.96 0.99 8 2 C8 2.33 8 2.66 8 3 C4.7 3 1.4 3 -2 3 C-1.34 2.01 -0.68 1.02 0 0 Z " fill="#434443" transform="translate(91,134)"/>
<path d="M0 0 C1.98 0 3.96 0 6 0 C6.33 0.99 6.66 1.98 7 3 C4.69 3 2.38 3 0 3 C0 2.01 0 1.02 0 0 Z " fill="#277ACF" transform="translate(97,12)"/>
</svg>
